<?xml version="1.0" encoding="utf-8"?>
<!-- Generator: Adobe Illustrator 25.3.0, SVG Export Plug-In . SVG Version: 6.00 Build 0)  -->
<svg version="1.1" id="Calque_4" xmlns="http://www.w3.org/2000/svg" xmlns:xlink="http://www.w3.org/1999/xlink" x="0px" y="0px"
	 viewBox="0 0 450.1 402.1" style="enable-background:new 0 0 450.1 402.1;" xml:space="preserve">
<style type="text/css">
	.st0{fill:#251C14;}
	.st1{fill:#C08F6A;}
	.st2{font-family:'BebasNeueBold';}
	.st3{font-size:86.1179px;}
	.st4{fill:#F0D8B9;}
	.st5{font-family:'Lora-Bold';}
	.st6{font-size:86.0899px;}
	.st7{fill:none;stroke:#C08F6A;stroke-width:0.8522;stroke-miterlimit:10;}
</style>
<path class="st0" d="M395.4,306.2H61.4c-6,0-10.9-4.9-10.9-10.9V69.1c0-6,4.9-10.9,10.9-10.9h334.1c6,0,10.9,4.9,10.9,10.9v226.3
	C406.3,301.4,401.4,306.2,395.4,306.2z"/>
<g>
	<text transform="matrix(1 0 0 1 98.0318 169.7215)" class="st1 st2 st3">Post</text>
</g>
<text transform="matrix(1 0 0 1 93.6412 257.1746)" class="st4 st5 st6">Coffee</text>
<path class="st7" d="M388.4,293.7H68.4c-2.8,0-5-2.3-5-5V75.8c0-2.8,2.3-5,5-5h320.1c2.8,0,5,2.3,5,5v212.8
	C393.5,291.4,391.2,293.7,388.4,293.7z"/>
<g>
	<path class="st1" d="M270.3,166c-2.5-5.3-1.4-9.9,1.9-14.1c0.3-0.4,0.7-1.2,0.5-1.7c-2.6-7.3-2.4-15-2.4-22.6
		c0-6.7-0.3-6.1,6.2-6.1c6.9,0,13.8,0,20.6,0c1.4,0,2.9,0.1,2.9,1.9c0,2-1.4,2.1-3,2.1c-7.5,0-15,0-22.7,0c-0.1,7.7-0.7,15.4,2,22.8
		c7.1-2.3,11.2-1.5,14,2.5c2.8,4,2,9.3-2.4,15.1c0.6,0.1,1.1,0.2,1.6,0.2c11.8,0,23.5,0,35.3,0c0.9,0,2.1-0.5,2.8-1.2
		c7.7-7.6,11.8-16.9,12.3-27.7c0.2-3.8,0-7.6,0-11.6c-0.9,0-1.6,0-2.3,0c-6.9,0-13.8,0-20.6,0c-1.5,0-2.8-0.3-2.8-2.1
		c0-1.7,1.3-1.9,2.7-1.9c9.8,0,19.6,0,29.5,0c9,0.1,16.4,7.6,16.5,16.6c0.1,9.2-7.1,16.8-16.2,17.1c-2.3,0.1-5.1-0.7-6.9,0.3
		c-1.7,0.9-2.4,3.7-3.7,5.5c-1.1,1.6-2.4,3.2-3.8,5c4.6,0,8.9,0,13.2,0c1.9,0,3.7,0,5.6,0c2.4,0,3.1,0.9,2.8,3.2
		c-0.6,5.7-5.4,10.2-11.2,10.4c-2.1,0.1-4.3,0-6.5,0c-0.2,0.6-0.4,1.2-0.7,1.7c-1.7,4-4.8,6.3-9.2,6.3c-12.9,0.1-25.8,0.1-38.7,0
		c-4.3,0-7.8-2.5-9.3-6.6c-0.4-1.1-0.9-1.4-2-1.4c-2.5,0-5.1,0.1-7.6-0.4c-4.7-1-8.3-5.3-8.7-10.1c-0.2-2.3,0.5-3.1,2.8-3.1
		C265.4,166,267.7,166,270.3,166z M264.7,170.1c0.9,3.4,3.6,5.5,7.1,5.6c2.5,0.1,4.9,0,7.4,0c1.7,0,2.5,0.7,2.7,2.4
		c0.4,3.5,2.7,5.6,6.2,5.6c12.7,0,25.4,0,38.1,0c3.4,0,5.8-2.1,6.2-5.6c0.2-1.8,1-2.5,2.7-2.5c2.5,0,5.1,0.1,7.6,0
		c3.5-0.1,6.4-2.6,6.7-5.5C321.2,170.1,293.1,170.1,264.7,170.1z M341.3,151c6.4,0.7,12.2-0.2,15.7-6.3c2.7-4.5,2.5-9.2-0.5-13.6
		c-3-4.3-7.2-6-12.5-5.5c0,1.6,0,3.1,0,4.7c0.8,0,1.5,0,2.1,0c4,0.1,7.3,3.1,7.8,7c0.5,4-2.1,7.7-6,8.7c-1.3,0.3-2.7,0.1-4,0.3
		c-0.5,0.1-1.3,0.4-1.5,0.8C342,148.4,341.7,149.7,341.3,151z M273.4,162.3c1.5-3.3,4.1-5.1,7.4-6.2c2.2-0.7,3.1-2.7,3-5
		C277.9,149.8,272.1,156,273.4,162.3z M287.5,154.6c-1.4,3.2-4,5-7.3,6.1c-2.3,0.7-3.3,2.9-3,5.1
		C283.3,166.7,288.9,160.7,287.5,154.6z M343.6,142.2c2.3,0.3,4.4,0.4,5.8-1.8c1-1.5,0.9-3-0.2-4.5c-1.3-1.8-3.2-1.9-5.1-1.5
		C343.9,137.1,343.8,139.6,343.6,142.2z"/>
	<path class="st4" d="M309.4,86.8c-0.5,0.8-0.7,1.4-1.1,1.9c-2.8,3.8-2.7,7.3,0.4,10.8c4.1,4.7,4.4,11.3,0.4,15.7
		c-0.6,0.6-1.7,1.1-2.5,1.1c-1.4-0.1-1.9-1.8-1-3.1c3.3-4.9,3.2-7.2-0.6-11.7c-3.8-4.6-3.7-11.6,0.4-15.5c0.5-0.5,1.6-0.8,2.3-0.7
		C308.3,85.3,308.8,86.2,309.4,86.8z"/>
	<path class="st4" d="M293.2,94.4c-0.4,0.8-0.7,1.3-1,1.8c-1.8,2.5-1.7,4.7,0.3,7.1c3.2,3.8,3.4,8.5,0.5,12.1
		c-0.9,1.1-2,1.7-3.3,0.7c-1.2-0.9-0.8-2,0-3.2c1.9-2.6,1.7-4.6-0.4-7.2c-3.1-3.7-3.2-9.1,0-12.2c0.6-0.5,1.7-0.8,2.4-0.7
		C292.3,92.8,292.7,93.8,293.2,94.4z"/>
	<path class="st4" d="M323.3,92.2c0.7,0.5,1.5,0.8,1.7,1.2c0.2,0.7,0.2,1.6-0.1,2.2c-2.2,3.9-2.2,4.6,0.6,8.1
		c2.6,3.4,2.6,8.3-0.1,11.4c-0.9,1.1-2,1.7-3.3,0.7c-1.2-1-0.7-2.1,0.1-3.2c1.8-2.4,1.6-4.7-0.4-7c-3.2-3.8-3.4-8.6-0.4-12
		C321.8,93.1,322.6,92.8,323.3,92.2z"/>
	
		<ellipse transform="matrix(0.9872 -0.1595 0.1595 0.9872 -15.7628 50.6081)" class="st4" cx="307.4" cy="123.5" rx="2.3" ry="2.3"/>
</g>
<path class="st1" d="M364.7,270.6c-2.5-0.1-5.1,0.8-7.1,2.7l-0.8,0.7c-1.9,1.8-4.9,1.7-6.7-0.2l-0.7-0.8c-3.7-4-10-4.2-14-0.4
	l-1.5,1.4c-1.9,1.8-4.9,1.7-6.7-0.2c-1.8-1.9-4.3-3-6.9-3.1c-2.6-0.1-5.2,0.9-7.1,2.7l-0.8,0.7c-0.9,0.9-2.1,1.3-3.4,1.3
	c-1.3,0-2.5-0.6-3.3-1.5l-0.7-0.8c-3.7-4-10-4.2-14-0.5l-1.8,1.7c-1.9,1.8-4.9,1.7-6.7-0.2l-0.9-0.9l0,0c0,0-0.1-0.1-0.1-0.1l0,0
	c-1.9-2-4.4-3-6.9-3.1c-2.5-0.1-5.1,0.8-7.1,2.7l-0.8,0.7c-1.9,1.8-4.9,1.7-6.7-0.2l-0.7-0.8c-3.7-4-10-4.2-14-0.4l-1.5,1.4
	c-1.9,1.8-4.9,1.7-6.7-0.2c-1.8-1.9-4.3-3-6.9-3.1c-2.6-0.1-5.2,0.9-7.1,2.7l-0.8,0.7c-0.9,0.9-2.1,1.3-3.4,1.3
	c-1.3,0-2.5-0.6-3.3-1.5l-0.7-0.8c-3.7-4-10-4.2-14-0.5l-1.8,1.7c-1.9,1.8-4.9,1.7-6.7-0.2l-0.9-0.9l0,0c-1.9-2-4.4-3-6.9-3.1
	c-2.5-0.1-5.1,0.8-7.1,2.7l-0.8,0.7c-1.9,1.8-4.9,1.7-6.7-0.2l-0.7-0.8c-3.7-4-10-4.2-14-0.4l-1.5,1.4c-1.9,1.8-4.9,1.7-6.7-0.2
	c-1.8-1.9-4.3-3-6.9-3.1c-2.6-0.1-5.2,0.9-7.1,2.7l-0.8,0.7c-0.9,0.9-2.1,1.3-3.4,1.3c-1.3,0-2.5-0.6-3.3-1.5l-0.7-0.8
	c-3.7-4-10-4.2-14-0.5l-1.8,1.7c-1.9,1.8-4.9,1.7-6.7-0.2l-0.9-1c-3.7-3.9-10-4-13.9-0.3l-0.8,0.8l3.5,3.7l0.8-0.8
	c1.9-1.8,4.9-1.7,6.7,0.2l0.9,1c3.7,3.9,9.9,4,13.9,0.4l1.8-1.7c1.9-1.8,4.9-1.7,6.7,0.2l0.7,0.8c3.7,4,10,4.2,14,0.4l0.8-0.7
	c0.9-0.9,2.1-1.3,3.4-1.3c1.3,0,2.5,0.6,3.3,1.5c3.7,4,10,4.2,14,0.4l1.5-1.4c1.9-1.8,4.9-1.7,6.7,0.2l0.7,0.8
	c3.7,3.9,9.9,4.1,13.8,0.6l0.1,0.1l0.8-0.8c1.9-1.8,4.9-1.7,6.7,0.2l0.9,1c3.7,3.9,9.9,4,13.9,0.4l1.8-1.7c1.9-1.8,4.9-1.7,6.7,0.2
	l0.7,0.8c3.7,4,10,4.2,14,0.4l0.8-0.7c0.9-0.9,2.1-1.3,3.4-1.3c1.3,0,2.5,0.6,3.3,1.5c3.7,4,10,4.2,14,0.4l1.5-1.4
	c1.9-1.8,4.9-1.7,6.7,0.2l0.7,0.8c3.7,3.9,9.9,4.2,13.9,0.5l0,0l0.8-0.8c1.9-1.8,4.9-1.7,6.7,0.2l0.9,1c3.7,3.9,9.9,4,13.9,0.4
	l1.8-1.7c1.9-1.8,4.9-1.7,6.7,0.2l0.7,0.8c3.7,4,10,4.2,14,0.4l0.8-0.7c0.9-0.9,2.1-1.3,3.4-1.3c1.3,0,2.5,0.6,3.3,1.5
	c3.7,4,10,4.2,14,0.4l1.5-1.4c1.9-1.8,4.9-1.7,6.7,0.2l0.7,0.8c3.7,4,10,4.2,14,0.4l0.8-0.7c1.9-1.8,4.9-1.7,6.7,0.2l3.7-3.5
	C369.7,271.8,367.2,270.7,364.7,270.6z"/>
</svg>
